<svg width="32" height="32" viewBox="0 0 32 32" fill="none" xmlns="http://www.w3.org/2000/svg">
  <rect width="32" height="32" rx="16" fill="black"/>
  <path d="M11.5114 9.20691C14.6858 8.93103 17.8782 8.93103 21.0527 9.20691L22.5832 9.33859C23.0739 9.3814 23.5459 9.54736 23.9554 9.82108C24.3649 10.0948 24.6988 10.4675 24.926 10.9045C24.9525 10.9584 24.9578 11.0204 24.9407 11.078C24.9236 11.1356 24.8854 11.1847 24.8338 11.2155L18.4871 15.1454C17.8191 15.559 17.0507 15.7819 16.2651 15.7899C15.4795 15.7979 14.7067 15.5908 14.0304 15.191L7.64216 11.415C7.5918 11.3865 7.55348 11.3408 7.5343 11.2862C7.51511 11.2316 7.51637 11.1719 7.53783 11.1182C7.74485 10.6274 8.08185 10.2024 8.51253 9.88903C8.94322 9.57561 9.45126 9.38564 9.98192 9.3396L11.5114 9.20691Z" fill="white"/>
  <path d="M7.53277 13.1156C7.49658 13.0942 7.45558 13.0822 7.41354 13.0807C7.3715 13.0792 7.32976 13.0883 7.29216 13.1072C7.25455 13.126 7.22228 13.154 7.19831 13.1886C7.17434 13.2232 7.15944 13.2632 7.15496 13.305C6.89813 15.8553 6.96074 18.4277 7.34133 20.9624C7.43976 21.6117 7.75367 22.2091 8.2326 22.6584C8.71153 23.1078 9.32766 23.383 9.98192 23.4399L11.5114 23.5726C14.6868 23.8491 17.8794 23.8491 21.0547 23.5726L22.5842 23.4409C23.2387 23.3837 23.8549 23.1079 24.3337 22.658C24.8125 22.208 25.126 21.6101 25.2238 20.9604C25.6154 18.3518 25.6702 15.7037 25.3868 13.0812C25.3819 13.0392 25.3665 12.9991 25.342 12.9647C25.3174 12.9302 25.2846 12.9025 25.2465 12.8841C25.2085 12.8657 25.1664 12.8573 25.1241 12.8595C25.0819 12.8617 25.0409 12.8746 25.005 12.8968L19.2873 16.4358C18.3838 16.995 17.3445 17.2963 16.282 17.3072C15.2196 17.3181 14.1744 17.0381 13.2596 16.4976L7.53277 13.1156Z" fill="white"/>
</svg>
