<svg width="39" height="39" fill="none" xmlns="http://www.w3.org/2000/svg"><g clip-path="url(#a)"><path fill-rule="evenodd" clip-rule="evenodd" d="M.883 19.744c0 9.447 6.86 17.302 15.833 18.894V24.916h-4.75v-5.278h4.75v-4.222c0-4.75 3.06-7.388 7.39-7.388 1.37 0 2.85.21 4.22.421v4.856H25.9c-2.322 0-2.85 1.16-2.85 2.64v3.693h5.067l-.844 5.278H23.05v13.722c8.973-1.592 15.834-9.446 15.834-18.893 0-10.51-8.55-19.107-19-19.107s-19 8.598-19 19.106Z" fill="#000"/></g><defs><clipPath id="a"><path fill="#fff" transform="translate(.883 .638)" d="M0 0h38v38H0z"/></clipPath></defs></svg>