<svg width="32" height="32" viewBox="0 0 32 32" fill="none" xmlns="http://www.w3.org/2000/svg">
  <rect width="32" height="32" rx="16" fill="black"/>
  <path d="M10.6974 13.5238L7.51542 16.7058C6.99908 17.2152 6.58862 17.8218 6.30767 18.4906C6.02672 19.1593 5.88083 19.877 5.8784 20.6024C5.87597 21.3278 6.01705 22.0465 6.29351 22.7171C6.56998 23.3877 6.97637 23.997 7.48928 24.5099C8.0022 25.0228 8.6115 25.4292 9.28212 25.7057C9.95274 25.9821 10.6714 26.1232 11.3968 26.1208C12.1222 26.1184 12.8399 25.9725 13.5086 25.6915C14.1774 25.4106 14.784 25.0001 15.2934 24.4838L16.3534 23.4238C16.4968 23.2855 16.6111 23.12 16.6898 22.937C16.7685 22.7541 16.81 22.5573 16.8118 22.3581C16.8136 22.1589 16.7758 21.9614 16.7004 21.777C16.6251 21.5926 16.5138 21.4251 16.373 21.2842C16.2322 21.1433 16.0648 21.0318 15.8805 20.9563C15.6962 20.8808 15.4987 20.8428 15.2995 20.8444C15.1004 20.846 14.9035 20.8873 14.7205 20.9658C14.5374 21.0444 14.3719 21.1586 14.2334 21.3018L13.1714 22.3628C12.7018 22.8282 12.067 23.0886 11.4058 23.087C10.7447 23.0855 10.1111 22.8221 9.64365 22.3545C9.17621 21.887 8.91302 21.2533 8.91167 20.5921C8.91032 19.931 9.17091 19.2962 9.63643 18.8268L12.8184 15.6448C13.1624 15.3007 13.5992 15.0644 14.0754 14.965C14.5516 14.8655 15.0465 14.9071 15.4994 15.0848C15.6608 15.1488 15.8121 15.2141 15.9534 15.2808L16.4174 15.4978C17.0374 15.7778 17.5144 15.8978 18.1214 15.2918C18.9934 14.4198 18.7674 13.6148 17.7044 12.8818C16.6455 12.1531 15.3648 11.8184 14.0848 11.9357C12.8048 12.0529 11.6063 12.6148 10.6974 13.5238ZM16.7074 7.51377L15.6474 8.57377C15.3741 8.85654 15.2227 9.23537 15.2259 9.62867C15.2291 10.022 15.3867 10.3983 15.6647 10.6765C15.9427 10.9548 16.3188 11.1127 16.7121 11.1163C17.1054 11.1199 17.4844 10.9689 17.7674 10.6958L18.8284 9.63577C19.059 9.39693 19.3348 9.20639 19.6398 9.07529C19.9447 8.94418 20.2728 8.87512 20.6047 8.87214C20.9367 8.86916 21.2659 8.93233 21.5731 9.05794C21.8804 9.18356 22.1596 9.36911 22.3944 9.60377C22.6292 9.83844 22.8149 10.1175 22.9407 10.4247C23.0665 10.7319 23.1298 11.0611 23.127 11.3931C23.1243 11.725 23.0554 12.0531 22.9244 12.3581C22.7935 12.6632 22.6031 12.9391 22.3644 13.1698L19.1824 16.3518C18.8385 16.6958 18.4016 16.9321 17.9254 17.0316C17.4492 17.131 16.9543 17.0894 16.5014 16.9118C16.3401 16.8478 16.1888 16.7824 16.0474 16.7158L15.5834 16.4988C14.9634 16.2188 14.4854 16.0988 13.8794 16.7048C13.0074 17.5768 13.2334 18.3818 14.2964 19.1148C15.3553 19.8434 16.636 20.1782 17.916 20.0609C19.196 19.9436 20.3946 19.3817 21.3034 18.4728L24.4854 15.2908C25.0018 14.7813 25.4122 14.1747 25.6932 13.506C25.9741 12.8372 26.12 12.1195 26.1225 11.3941C26.1249 10.6688 25.9838 9.95008 25.7073 9.27946C25.4309 8.60885 25.0245 7.99954 24.5116 7.48662C23.9987 6.97371 23.3893 6.56732 22.7187 6.29085C22.0481 6.01439 21.3294 5.87331 20.6041 5.87574C19.8787 5.87817 19.161 6.02406 18.4922 6.30501C17.8235 6.58596 17.2169 6.99743 16.7074 7.51377Z" fill="white"/>
</svg>
