<svg width="37" height="37" fill="none" xmlns="http://www.w3.org/2000/svg"><path d="M18.383.399C8.574.399.623 8.565.623 18.639c0 10.073 7.951 18.24 17.76 18.24 9.809 0 17.76-8.166 17.76-18.24 0-10.074-7.951-18.24-17.76-18.24Zm-4.347 25.8h-3.597V14.312h3.597V26.2Zm-1.82-13.346c-1.137 0-1.871-.826-1.871-1.848 0-1.044.756-1.845 1.916-1.845s1.87.801 1.893 1.845c0 1.022-.733 1.848-1.939 1.848ZM27.17 26.2h-3.597v-6.59c0-1.533-.522-2.574-1.822-2.574-.994 0-1.584.705-1.845 1.383-.096.241-.12.583-.12.924v6.853H16.19v-8.094a81.56 81.56 0 0 0-.094-3.793h3.124l.165 1.652h.072c.474-.776 1.634-1.92 3.574-1.92 2.366 0 4.14 1.629 4.14 5.129v7.028Z" fill="#000"/></svg>