<svg width="32" height="32" viewBox="0 0 32 32" fill="none" xmlns="http://www.w3.org/2000/svg">
  <rect width="32" height="32" rx="16" fill="black"/>
  <path d="M11.25 8C11.2497 8.53043 11.0388 9.03904 10.6635 9.41392C10.2882 9.78881 9.77943 9.99927 9.249 9.999C8.71857 9.99874 8.20996 9.78777 7.83508 9.41251C7.46019 9.03725 7.24974 8.52843 7.25 7.998C7.25027 7.46757 7.46123 6.95897 7.83649 6.58408C8.21175 6.20919 8.72057 5.99874 9.251 5.999C9.78143 5.99927 10.29 6.21023 10.6649 6.58549C11.0398 6.96075 11.2503 7.46957 11.25 8ZM11.31 11.48H7.31V24H11.31V11.48ZM17.63 11.48H13.65V24H17.59V17.43C17.59 13.77 22.36 13.43 22.36 17.43V24H26.31V16.07C26.31 9.9 19.25 10.13 17.59 13.16L17.63 11.48Z" fill="white"/>
</svg>
