<svg width="31" height="36" fill="none" xmlns="http://www.w3.org/2000/svg"><g clip-path="url(#a)"><path d="M30.314 14.988a13.87 13.87 0 0 1-8.222-2.683v12.217c0 2.263-.678 4.471-1.942 6.33a10.92 10.92 0 0 1-5.129 4.073c-2.076.793-4.34.92-6.488.364a10.853 10.853 0 0 1-5.535-3.475 11.225 11.225 0 0 1-2.61-6.075 11.308 11.308 0 0 1 1.247-6.51 10.992 10.992 0 0 1 4.657-4.626 10.69 10.69 0 0 1 6.41-1.092v6.145a4.9 4.9 0 0 0-3.083.028 5.005 5.005 0 0 0-2.48 1.869 5.174 5.174 0 0 0-.933 2.999 5.172 5.172 0 0 0 .968 2.988 5.002 5.002 0 0 0 2.501 1.839 4.9 4.9 0 0 0 3.083-.01c1-.334 1.873-.983 2.49-1.854.619-.87.952-1.918.952-2.993V.638h5.892a8.456 8.456 0 0 0 .125 1.516 8.45 8.45 0 0 0 1.251 3.122 8.263 8.263 0 0 0 2.359 2.362 8.013 8.013 0 0 0 4.487 1.377v5.973Z" fill="#000"/></g><defs><clipPath id="a"><path fill="#fff" transform="translate(.314 .638)" d="M0 0h30v35H0z"/></clipPath></defs></svg>