<svg width="26" height="28" fill="none" xmlns="http://www.w3.org/2000/svg"><path d="M25.049 25.284c0 1.395-1.17 2.527-2.614 2.527H3.268c-1.443 0-2.614-1.132-2.614-2.527V10.96h24.395v14.324ZM7.624 14.962a.645.645 0 0 0-.653-.632H4.792a.645.645 0 0 0-.653.632v2.107c0 .347.294.632.653.632h2.179a.645.645 0 0 0 .653-.633v-2.106Zm0 6.74a.645.645 0 0 0-.653-.631H4.792a.645.645 0 0 0-.653.632v2.106c0 .348.294.632.653.632h2.179a.644.644 0 0 0 .653-.632v-2.106Zm6.97-6.74a.645.645 0 0 0-.653-.632h-2.179a.645.645 0 0 0-.653.632v2.107c0 .347.294.632.653.632h2.178c.36 0 .654-.285.654-.633v-2.106Zm0 6.74a.645.645 0 0 0-.653-.631h-2.179a.645.645 0 0 0-.653.632v2.106c0 .348.294.632.653.632h2.178c.36 0 .654-.284.654-.632v-2.106Zm6.97-6.74a.645.645 0 0 0-.654-.632h-2.178a.645.645 0 0 0-.653.632v2.107c0 .347.294.632.653.632h2.178c.36 0 .654-.285.654-.633v-2.106Zm0 6.74a.645.645 0 0 0-.654-.631h-2.178a.645.645 0 0 0-.653.632v2.106c0 .348.294.632.653.632h2.178c.36 0 .654-.284.654-.632v-2.106ZM3.268 4.22H5.88V1.691c0-.463.393-.842.872-.842h1.742c.48 0 .871.379.871.842V4.22h6.97V1.691c0-.463.392-.842.872-.842h1.742c.48 0 .871.379.871.842V4.22h2.614c1.443 0 2.614 1.132 2.614 2.528v2.528H.654V6.747c0-1.396 1.17-2.528 2.614-2.528Z" fill="#fff"/></svg>