<svg width="163" height="40" viewBox="0 0 163 40" fill="none" xmlns="http://www.w3.org/2000/svg">
<g clip-path="url(#clip0_461_3351)">
<path d="M28.9609 21.0048V7.10864H35.4665V20.2642C35.4665 23.6849 37.2773 25.7264 40.2838 25.7264C43.2902 25.7264 45.0633 23.641 45.0633 20.2642V7.10864H51.569V21.0033C51.569 27.4979 47.0891 31.8381 40.2838 31.8381C33.4785 31.8381 28.9609 27.4979 28.9609 21.0033V21.0048Z" fill="white"/>
<path d="M71.4545 25.3686V31.1587H66.8318C61.5376 31.1587 58.2848 27.9075 58.2848 22.5724V12.3355H53.9336V10.9311L63.4394 0.83374H64.6837V7.10869H71.3227V12.3355H64.7935V21.7079C64.7935 24.0317 66.1304 25.3686 68.4998 25.3686H71.4561H71.4545Z" fill="white"/>
<path d="M91.2357 25.3686V31.1587H86.6131C81.3188 31.1587 78.066 27.9075 78.066 22.5724V12.3355H73.7148V10.9311L83.2191 0.83374H84.4634V7.10869H91.1024V12.3355H84.5732V21.7079C84.5732 24.0317 85.9101 25.3686 88.2795 25.3686H91.2373H91.2357Z" fill="white"/>
<path d="M117.191 19.0482C117.191 19.6837 117.147 20.3192 117.065 20.9547H98.8537C99.4185 24.2373 101.578 26.0449 104.733 26.0449C106.994 26.0449 108.849 24.9763 109.838 23.255H116.676C114.926 28.4975 110.321 31.8381 104.735 31.8381C97.6297 31.8381 92.2539 26.3399 92.2539 19.1329C92.2539 11.9259 97.5936 6.42767 104.735 6.42767C111.876 6.42767 117.191 12.1205 117.191 19.0482ZM98.9258 16.514H110.586C109.667 13.5735 107.553 11.9793 104.634 11.9793C101.716 11.9793 99.6822 13.6676 98.9258 16.514Z" fill="white"/>
<path d="M133.906 6.97534V13.1091H131.083C127.416 13.1091 125.967 14.7331 125.967 18.6638V31.1572H119.461V7.10872H123.633L124.79 10.0555C126.503 7.92937 128.676 6.97534 131.768 6.97534H133.906Z" fill="white"/>
<path d="M162.687 7.10864L152.199 30.8386C149.314 37.3567 146.779 39.8265 141.379 39.8265H138.698V33.98H140.949C144.085 33.98 144.899 33.1468 146.377 29.5095L146.468 29.315L136.273 7.10864H143.353L149.773 21.904L155.767 7.10864H162.685H162.687Z" fill="white"/>
<path d="M14.0226 6.42926C11.0209 6.42926 8.35337 7.48685 6.31036 9.29606L5.19942 7.11026H0.898438V39.8266H7.40405V29.8501C9.26974 31.1399 11.5309 31.8743 14.0226 31.8743C21.2704 31.8743 26.629 26.4121 26.629 19.1329C26.629 11.8537 21.2704 6.42926 14.0226 6.42926Z" fill="white"/>
</g>
<defs>
<clipPath id="clip0_461_3351">
<rect width="161.788" height="38.9929" fill="white" transform="translate(0.898438 0.83374)"/>
</clipPath>
</defs>
</svg>
